#!OML:ASF C:\ViconDB\ViconDB\414\Spring2016\041811\Spring2016.ASF
:FULLY-SPECIFIED
:DEGREES
339
root 8.74021 18.1969 -41.5379 -180.793 -5.11242 -183.119
lowerback -0.320127 -1.7505 -8.15982
upperback 0.593451 -2.30207 0.114009
thorax 1.12095 -1.22473 4.65579
lowerneck -8.67392 -5.17534 -10.2191
upperneck 22.552 -7.29237 14.7372
head 9.42905 -2.21809 6.20819
rclavicle 1.32719e-014 -2.88238e-015
rhumerus -58.1227 -21.5479 -70.6284
rradius 31.484
rwrist 48.356
rhand -28.9912 -10.4205
rfingers 7.12502
rthumb -2.34318 -40.3874
lclavicle 1.32719e-014 -2.88238e-015
lhumerus -25.8779 -17.2449 87.7227
lradius 44.7245
lwrist -22.9959
lhand -31.7873 14.0013
lfingers 7.12502
lthumb -5.04333 43.9213
rfemur -28.1558 -13.976 20.5443
rtibia 23.5318
rfoot -167.158 3.5582
rtoes -8.34322
lfemur 12.7415 -5.07813 -24.2757
ltibia 11.6055
lfoot -19.2949 -3.16203
ltoes -13.4615
340
root 8.75558 18.1599 -41.7339 -180.803 -5.26803 -183.609
lowerback -0.252805 -1.81478 -8.53349
upperback 0.602569 -2.39607 0.016281
thorax 1.11735 -1.27653 4.76308
lowerneck -8.71634 -5.16659 -10.2734
upperneck 22.5892 -7.25903 14.6505
head 9.44403 -2.21713 6.19037
rclavicle 9.12037e-015 -1.71203e-014
rhumerus -58.112 -21.54 -70.5229
rradius 31.4397
rwrist 48.3634
rhand -28.8745 -10.4556
rfingers 7.12502
rthumb -2.23054 -40.4236
lclavicle 9.12037e-015 -1.71203e-014
lhumerus -25.9503 -16.8641 87.6289
lradius 45.0671
lwrist -23.7391
lhand -31.5313 14.7127
lfingers 7.12502
lthumb -4.79615 44.6384
rfemur -28.334 -13.9959 20.1316
rtibia 24.1717
rfoot -167.11 3.58498
rtoes -8.46692
lfemur 13.7746 -4.83506 -24.5886
ltibia 10.9409
lfoot -18.6754 -3.72235
ltoes -13.754
341
root 8.76638 18.1354 -41.9342 -180.442 -5.17128 -184.803
lowerback -0.562214 -1.82481 -9.48242
upperback 0.480912 -2.39233 -0.339374
thorax 1.18799 -1.28715 4.91485
lowerneck -8.64469 -5.14022 -10.275
upperneck 22.6721 -7.21839 14.6535
head 9.45334 -2.1925 6.20201
rclavicle -3.19535e-015 -1.69402e-014
rhumerus -58.3676 -21.7101 -70.2888
rradius 31.5543
rwrist 48.6942
rhand -28.9205 -10.5918
rfingers 7.12502
rthumb -2.27489 -40.5594
lclavicle -3.19535e-015 -1.69402e-014
lhumerus -26.183 -16.5766 87.5761
lradius 45.1892
lwrist -23.2576
lhand -31.7662 14.1666
lfingers 7.12502
lthumb -5.02302 44.0871
rfemur -28.8808 -13.793 19.0135
rtibia 25.0765
rfoot -166.638 3.69526
rtoes -9.13312
lfemur 14.3991 -4.56047 -25.6988
ltibia 10.4191
lfoot -18.1884 -4.0216
ltoes -14.3414
342
root 8.78355 18.107 -42.143 -180.405 -5.23149 -184.79
lowerback -0.747387 -1.86375 -9.33432
upperback 0.456696 -2.42332 -0.296703
thorax 1.26754 -1.30289 4.8696
lowerneck -8.6799 -5.12275 -10.2907
upperneck 22.8697 -7.16041 14.5078
head 9.516 -2.17103 6.16714
rclavicle 3.47262e-015 2.045e-014
rhumerus -58.4194 -21.7248 -70.1444
rradius 31.5464
rwrist 48.7465
rhand -29.034 -10.5842
rfingers 7.12502
rthumb -2.38457 -40.5506
lclavicle 3.47262e-015 2.045e-014
lhumerus -26.283 -16.2679 87.5869
lradius 45.0804
lwrist -23.118
lhand -31.7662 13.9645
lfingers 7.12502
lthumb -5.02301 43.885
rfemur -28.9706 -13.94 19.1957
rtibia 26.04
rfoot -166.175 3.8057
rtoes -9.70868
lfemur 15.1124 -4.52138 -25.5187
ltibia 10.3213
lfoot -17.8564 -4.3105
ltoes -15.0811
343
root 8.80548 18.081 -42.3521 -180.408 -5.48 -184.916
lowerback -0.721906 -1.96153 -9.26909
upperback 0.357871 -2.56367 -0.364932
thorax 1.16542 -1.36499 4.7606
lowerneck -9.13657 -5.20999 -9.95128
upperneck 23.5963 -7.20444 13.872
head 9.8315 -2.18091 5.89674
rclavicle -5.08401e-014 -6.5102e-015
rhumerus -58.545 -21.6975 -70.1214
rradius 31.5261
rwrist 48.2016
rhand -29.1734 -10.552
rfingers 7.12502
rthumb -2.51913 -40.5169
lclavicle -5.08401e-014 -6.5102e-015
lhumerus -26.6899 -15.8823 87.5631
lradius 45.0269
lwrist -23.061
lhand -31.7484 13.7476
lfingers 7.12502
lthumb -5.00575 43.6684
rfemur -28.844 -14.1852 19.0637
rtibia 27.0847
rfoot -165.749 3.99451
rtoes -10.24
lfemur 15.8199 -4.35899 -25.3514
ltibia 10.2338
lfoot -17.3261 -4.94051
ltoes -15.3446
344
root 8.83064 18.0602 -42.5689 -180.457 -5.64361 -184.817
lowerback -0.838887 -2.03684 -9.10432
upperback 0.334818 -2.65008 -0.289077
thorax 1.21664 -1.40669 4.74084
lowerneck -9.19905 -5.14275 -9.85274
upperneck 23.8296 -7.06543 13.6038
head 9.89292 -2.12322 5.80697
rclavicle -5.54648e-014 -1.85864e-014
rhumerus -58.7555 -21.876 -69.8156
rradius 31.736
rwrist 48.4228
rhand -29.32 -10.7488
rfingers 7.12502
rthumb -2.66072 -40.712
lclavicle -5.54648e-014 -1.85864e-014
lhumerus -27.1526 -15.4574 87.6343
lradius 45.0217
lwrist -23.0652
lhand -31.7256 13.8607
lfingers 7.12502
lthumb -4.9838 43.7821
rfemur -28.6196 -14.3048 19.1568
rtibia 28.1271
rfoot -164.762 4.08643
rtoes -10.6845
lfemur 16.654 -4.32474 -24.9829
ltibia 9.99703
lfoot -16.6754 -5.30604
ltoes -15.771
345
root 8.85682 18.0652 -42.7887 -180.602 -5.74438 -184.446
lowerback -0.872064 -2.07809 -8.60738
upperback 0.299212 -2.7014 -0.162584
thorax 1.18913 -1.42337 4.59285
lowerneck -9.03919 -5.10182 -10.0036
upperneck 23.8973 -6.98394 13.6399
head 9.88155 -2.09237 5.86277
rclavicle 6.98619e-015 1.2275e-014
rhumerus -58.8841 -21.9311 -69.6251
rradius 31.91
rwrist 48.1859
rhand -29.4068 -10.6451
rfingers 7.12502
rthumb -2.7446 -40.6071
lclavicle 6.98619e-015 1.2275e-014
lhumerus -27.5897 -14.8014 87.715
lradius 44.7009
lwrist -23.3927
lhand -31.5178 14.0208
lfingers 7.12502
lthumb -4.78309 43.9468
rfemur -28.4383 -14.5042 19.5859
rtibia 29.1817
rfoot -163.254 3.43402
rtoes -12.7741
lfemur 17.8398 -4.2506 -24.2895
ltibia 9.30843
lfoot -15.7011 -5.58215
ltoes -16.2548
346
root 8.88754 18.0854 -43.0089 -180.808 -5.81393 -184.234
lowerback -0.78981 -2.11552 -8.28219
upperback 0.281994 -2.76028 -0.116954
thorax 1.12022 -1.44582 4.46038
lowerneck -9.0951 -5.05983 -9.77959
upperneck 24.2179 -6.87485 13.2642
head 9.96952 -2.04258 5.71147
rclavicle -3.75517e-015 4.57205e-015
rhumerus -59.0405 -22.1057 -69.4358
rradius 32.1102
rwrist 48.1618
rhand -29.403 -10.8763
rfingers 7.12502
rthumb -2.74093 -40.8384
lclavicle -3.75517e-015 4.57205e-015
lhumerus -28.046 -14.0825 87.6854
lradius 44.3182
lwrist -23.647
lhand -31.4038 13.9607
lfingers 7.12502
lthumb -4.67309 43.8892
rfemur -28.3131 -14.1158 19.6402
rtibia 30.3003
rfoot -162.211 2.52389
rtoes -13.0507
lfemur 19.0837 -4.14378 -23.7631
ltibia 8.57157
lfoot -14.6363 -5.84025
ltoes -17.1395
